<svg width="36" height="36" viewBox="0 0 36 36" fill="none" xmlns="http://www.w3.org/2000/svg">
<rect x="7.5" y="6" width="22.5" height="22.5" fill="#A3F2D8"/>
<path d="M6 12H30M6 12V25.2C6 26.88 6 27.72 6.327 28.362C6.61462 28.9265 7.07354 29.3854 7.638 29.673C8.2785 30 9.1185 30 10.7955 30H25.2045C26.8815 30 27.72 30 28.3605 29.673C28.926 29.385 29.385 28.926 29.673 28.362C30 27.72 30 26.883 30 25.206V12M6 12V10.8C6 9.12 6 8.28 6.327 7.638C6.615 7.0725 7.0725 6.615 7.638 6.327C8.28 6 9.12 6 10.8 6H12M30 12V10.7955C30 9.1185 30 8.2785 29.673 7.638C29.385 7.07331 28.9255 6.61436 28.3605 6.327C27.72 6 26.88 6 25.2 6H24M12 6H24M12 6V3M24 6V3M24 18H12" stroke="#0DA484" stroke-width="3" stroke-linecap="round" stroke-linejoin="round"/>
</svg>
