<svg width="37" height="36" viewBox="0 0 37 36" fill="none" xmlns="http://www.w3.org/2000/svg">
<path d="M30.5 25.5V17.178C30.5 16.377 30.5 15.9765 30.4025 15.603C30.3162 15.2729 30.1742 14.9599 29.9825 14.6775C29.765 14.358 29.465 14.0925 28.8605 13.566L21.6605 7.26602C20.5415 6.28652 19.9805 5.79602 19.3505 5.61002C18.7955 5.44502 18.2045 5.44502 17.648 5.61002C17.018 5.79602 16.46 6.28502 15.341 7.26302L8.1395 13.566C7.5365 14.094 7.235 14.358 7.019 14.676C6.8267 14.9587 6.68415 15.2723 6.5975 15.603C6.5 15.975 6.5 16.377 6.5 17.178V25.5C6.5 26.898 6.5 27.597 6.728 28.1475C6.8786 28.5116 7.09944 28.8425 7.37792 29.1212C7.65639 29.3999 7.98705 29.6211 8.351 29.772C8.903 30 9.602 30 11 30C12.398 30 13.097 30 13.649 29.772C14.013 29.6211 14.3436 29.3999 14.6221 29.1212C14.9006 28.8425 15.1214 28.5116 15.272 28.1475C15.5 27.597 15.5 26.898 15.5 25.5V24C15.5 23.2044 15.8161 22.4413 16.3787 21.8787C16.9413 21.3161 17.7044 21 18.5 21C19.2956 21 20.0587 21.3161 20.6213 21.8787C21.1839 22.4413 21.5 23.2044 21.5 24V25.5C21.5 26.898 21.5 27.597 21.728 28.1475C21.8786 28.5116 22.0994 28.8425 22.3779 29.1212C22.6564 29.3999 22.987 29.6211 23.351 29.772C23.903 30 24.602 30 26 30C27.398 30 28.097 30 28.649 29.772C29.013 29.6211 29.3436 29.3999 29.6221 29.1212C29.9006 28.8425 30.1214 28.5116 30.272 28.1475C30.5 27.597 30.5 26.898 30.5 25.5Z" fill="#A3F2D8" stroke="#0DA484" stroke-width="2.5" stroke-linecap="round" stroke-linejoin="round"/>
</svg>
