<svg width="37" height="36" viewBox="0 0 37 36" fill="none" xmlns="http://www.w3.org/2000/svg">
<rect x="11" y="4.5" width="15" height="15" rx="6.75" fill="#A3F2D8"/>
<path d="M8.52571 27.7918C9.80722 26.335 11.6537 25.5 13.594 25.5H24.8236C26.8115 25.5 28.6983 26.3762 29.9808 27.895L31.125 29.25C32.1551 30.8765 30.9865 33 29.0612 33H8.16605C6.72857 33 5.80682 31.4713 6.47778 30.2C6.5479 30.0671 6.63347 29.943 6.73269 29.8302L8.52571 27.7918Z" fill="#A3F2D8"/>
<path d="M30.5 31.5C30.5 27.3585 25.127 24 18.5 24C11.873 24 6.5 27.3585 6.5 31.5M18.5 19.5C16.5109 19.5 14.6032 18.7098 13.1967 17.3033C11.7902 15.8968 11 13.9891 11 12C11 10.0109 11.7902 8.10322 13.1967 6.6967C14.6032 5.29018 16.5109 4.5 18.5 4.5C20.4891 4.5 22.3968 5.29018 23.8033 6.6967C25.2098 8.10322 26 10.0109 26 12C26 13.9891 25.2098 15.8968 23.8033 17.3033C22.3968 18.7098 20.4891 19.5 18.5 19.5Z" stroke="#0DA484" stroke-width="3" stroke-linecap="round" stroke-linejoin="round"/>
</svg>
