<svg width="37" height="36" viewBox="0 0 37 36" fill="none" xmlns="http://www.w3.org/2000/svg">
<path d="M30.5 31.5C30.5 27.3585 25.127 24 18.5 24C11.873 24 6.5 27.3585 6.5 31.5M18.5 19.5C16.5109 19.5 14.6032 18.7098 13.1967 17.3033C11.7902 15.8968 11 13.9891 11 12C11 10.0109 11.7902 8.10322 13.1967 6.6967C14.6032 5.29018 16.5109 4.5 18.5 4.5C20.4891 4.5 22.3968 5.29018 23.8033 6.6967C25.2098 8.10322 26 10.0109 26 12C26 13.9891 25.2098 15.8968 23.8033 17.3033C22.3968 18.7098 20.4891 19.5 18.5 19.5Z" stroke="#8E918F" stroke-width="3" stroke-linecap="round" stroke-linejoin="round"/>
</svg>
