<svg width="37" height="36" viewBox="0 0 37 36" fill="none" xmlns="http://www.w3.org/2000/svg">
<path d="M14.75 4.5L19.25 6.75L22.25 5.25L25.25 9L31.25 12C31 13.25 30.65 15.75 31.25 15.75C32 15.75 32 18.75 32 19.5V21L29 24L27.5 24.75L25.25 27.75L23 30.75H22.25H20.75H18.5H14L12.5 29.25L11 27L8 25.5L6.5 23.25V18.75L5.75 16.5L7.25 12L11 10.5L14.75 4.5Z" fill="#A3F2D8"/>
<path d="M24.755 11.745L3.5 33M24.755 11.745C25.1596 11.3397 25.478 10.8567 25.6909 10.325C25.9037 9.79337 26.0067 9.22411 25.9936 8.65158C25.9804 8.07905 25.8515 7.51511 25.6145 6.99377C25.3774 6.47244 25.0373 6.00452 24.6145 5.61823C24.1917 5.23194 23.6951 4.93529 23.1545 4.74618C22.6139 4.55707 22.0407 4.47941 21.4693 4.51788C20.8979 4.55636 20.3402 4.71017 19.8299 4.97005C19.3196 5.22993 18.8672 5.59048 18.5 6.02996C18.1328 5.59048 17.6804 5.22993 17.1701 4.97005C16.6598 4.71017 16.1021 4.55636 15.5307 4.51788C14.9593 4.47941 14.3861 4.55707 13.8455 4.74618C13.3049 4.93529 12.8083 5.23194 12.3855 5.61823C11.9627 6.00452 11.6226 6.47244 11.3855 6.99377C11.1485 7.51511 11.0196 8.07905 11.0064 8.65158C10.9933 9.22411 11.0963 9.79337 11.3091 10.325C11.522 10.8567 11.8404 11.3397 12.245 11.745M24.755 11.745C25.1603 11.3403 25.6433 11.022 26.1749 10.8091C26.7066 10.5962 27.2758 10.4933 27.8484 10.5064C28.4209 10.5195 28.9849 10.6485 29.5062 10.8855C30.0275 11.1225 30.4954 11.4627 30.8817 11.8855C31.268 12.3083 31.5647 12.8049 31.7538 13.3455C31.9429 13.886 32.0206 14.4593 31.9821 15.0307C31.9436 15.6021 31.7898 16.1597 31.5299 16.6701C31.27 17.1804 30.9095 17.6328 30.47 18C30.9095 18.3671 31.27 18.8195 31.5299 19.3299C31.7898 19.8402 31.9436 20.3979 31.9821 20.9693C32.0206 21.5406 31.9429 22.1139 31.7538 22.6545C31.5647 23.195 31.268 23.6917 30.8817 24.1145C30.4954 24.5372 30.0275 24.8774 29.5062 25.1144C28.9849 25.3514 28.4209 25.4804 27.8484 25.4935C27.2758 25.5067 26.7066 25.4037 26.1749 25.1908C25.6433 24.978 25.1603 24.6596 24.755 24.255M6.53 18C6.09052 17.6328 5.72996 17.1804 5.47009 16.6701C5.21021 16.1597 5.0564 15.6021 5.01792 15.0307C4.97944 14.4593 5.0571 13.886 5.24622 13.3455C5.43533 12.8049 5.73198 12.3083 6.11827 11.8855C6.50455 11.4627 6.97248 11.1225 7.49381 10.8855C8.01514 10.6485 8.57909 10.5195 9.15162 10.5064C9.72415 10.4933 10.2934 10.5962 10.8251 10.8091C11.3567 11.022 11.8397 11.3403 12.245 11.745M12.245 11.745L24.755 24.255M24.755 24.255C25.1596 24.6602 25.478 25.1433 25.6909 25.6749C25.9037 26.2066 26.0067 26.7758 25.9936 27.3483C25.9804 27.9209 25.8515 28.4848 25.6145 29.0062C25.3774 29.5275 25.0373 29.9954 24.6145 30.3817C24.1917 30.768 23.6951 31.0646 23.1545 31.2537C22.6139 31.4429 22.0407 31.5205 21.4693 31.482C20.8979 31.4436 20.3402 31.2898 19.8299 31.0299C19.3196 30.77 18.8672 30.4094 18.5 29.97C18.1328 30.4094 17.6804 30.77 17.1701 31.0299C16.6598 31.2898 16.1021 31.4436 15.5307 31.482C14.9593 31.5205 14.3861 31.4429 13.8455 31.2537C13.3049 31.0646 12.8083 30.768 12.3855 30.3817C11.9627 29.9954 11.6226 29.5275 11.3855 29.0062C11.1485 28.4848 11.0196 27.9209 11.0064 27.3483C10.9933 26.7758 11.0963 26.2066 11.3091 25.6749C11.522 25.1433 11.8404 24.6602 12.245 24.255C11.4155 25.0168 10.3174 25.4179 9.19219 25.3701C8.06697 25.3223 7.00683 24.8294 6.245 24C5.48317 23.1705 5.08204 22.0724 5.12986 20.9472C5.17768 19.8219 5.67054 18.7618 6.5 18" stroke="#0DA484" stroke-width="3" stroke-linecap="round" stroke-linejoin="round"/>
</svg>
