<svg width="24" height="24" viewBox="0 0 36 36" fill="none" xmlns="http://www.w3.org/2000/svg">
<g id="ci:add-plus-circle">
<rect id="Rectangle 17" x="3" y="3" width="30" height="30" rx="10.5" fill="white"/>
<path id="Vector" d="M12 18H18M18 18H24M18 18V24M18 18V12M18 31.5C16.2272 31.5 14.4717 31.1508 12.8338 30.4724C11.1959 29.7939 9.70765 28.7995 8.45406 27.5459C7.20047 26.2923 6.20607 24.8041 5.52763 23.1662C4.84919 21.5283 4.5 19.7728 4.5 18C4.5 16.2272 4.84919 14.4717 5.52763 12.8338C6.20607 11.1959 7.20047 9.70765 8.45406 8.45406C9.70765 7.20047 11.1959 6.20606 12.8338 5.52763C14.4717 4.84919 16.2272 4.5 18 4.5C21.5804 4.5 25.0142 5.92232 27.5459 8.45406C30.0777 10.9858 31.5 14.4196 31.5 18C31.5 21.5804 30.0777 25.0142 27.5459 27.5459C25.0142 30.0777 21.5804 31.5 18 31.5Z" stroke="#0DA484" stroke-width="2" stroke-linecap="round" stroke-linejoin="round"/>
</g>
</svg>
