<svg width="27" height="24" viewBox="0 0 27 24" fill="none" xmlns="http://www.w3.org/2000/svg">
<g id="ci:triangle-warning">
<path id="Polygon 1" d="M13.5 4L23.2428 19H3.75721L13.5 4Z" fill="#FFDAD6"/>
<path id="Vector" d="M13.5 8.99992V12.9999M4.92637 15.1999C3.90262 16.7749 3.39187 17.5629 3.46837 18.2099C3.50141 18.4885 3.5999 18.7577 3.75746 19.0003C3.91502 19.2428 4.12813 19.4532 4.383 19.6179C4.97475 19.9999 5.99737 19.9999 8.04375 19.9999H18.9596C21.0037 19.9999 22.0264 19.9999 22.617 19.6179C22.8722 19.4532 23.0856 19.2427 23.2434 18.9999C23.4011 18.7572 23.4997 18.4877 23.5327 18.2089C23.6092 17.5629 23.0985 16.7749 22.0747 15.1989L16.6185 6.79892C15.5959 5.22492 15.084 4.43692 14.4157 4.17292C14.1277 4.05891 13.8159 4 13.5006 4C13.1852 4 12.8734 4.05891 12.5854 4.17292C11.9182 4.43692 11.4064 5.22492 10.3837 6.79792L4.92637 15.1999ZM13.5574 15.9999V16.0999H13.4449V15.9999H13.5574Z" stroke="#BA1A1A" stroke-width="2" stroke-linecap="round" stroke-linejoin="round"/>
</g>
</svg>
