<svg width="27" height="24" viewBox="0 0 27 24" fill="none" xmlns="http://www.w3.org/2000/svg">
<g id="lucide:clover">
<path id="Vector 1" d="M10.6875 3L14.0625 4.5L16.3125 3.5L18.5625 6L23.0625 8C22.875 8.83333 22.6125 10.5 23.0625 10.5C23.625 10.5 23.625 12.5 23.625 13V14L21.375 16L20.25 16.5L18.5625 18.5L16.875 20.5H16.3125H15.1875H13.5H10.125L9 19.5L7.875 18L5.625 17L4.5 15.5V12.5L3.9375 11L5.0625 8L7.875 7L10.6875 3Z" fill="#A3F2D8"/>
<path id="Vector" d="M18.1913 7.83006L2.25 22.0001M18.1913 7.83006C18.4947 7.55988 18.7335 7.23787 18.8931 6.88343C19.0528 6.529 19.13 6.14949 19.1202 5.7678C19.1103 5.38611 19.0136 5.01015 18.8358 4.6626C18.6581 4.31504 18.403 4.00309 18.0859 3.74557C17.7688 3.48804 17.3963 3.29028 16.9909 3.1642C16.5855 3.03813 16.1555 2.98635 15.727 3.012C15.2984 3.03765 14.8802 3.1402 14.4974 3.31345C14.1147 3.4867 13.7754 3.72707 13.5 4.02006C13.2246 3.72707 12.8853 3.4867 12.5026 3.31345C12.1198 3.1402 11.7016 3.03765 11.273 3.012C10.8445 2.98635 10.4145 3.03813 10.0091 3.1642C9.6037 3.29028 9.23122 3.48804 8.91413 3.74557C8.59704 4.00309 8.34192 4.31504 8.16415 4.6626C7.98639 5.01015 7.88967 5.38611 7.87982 5.7678C7.86997 6.14949 7.9472 6.529 8.10686 6.88343C8.26651 7.23787 8.50527 7.55988 8.80875 7.83006M18.1913 7.83006C18.4952 7.5603 18.8575 7.34806 19.2562 7.20615C19.6549 7.06424 20.0819 6.99559 20.5113 7.00434C20.9407 7.01309 21.3636 7.09907 21.7546 7.25708C22.1456 7.41509 22.4966 7.64187 22.7863 7.92372C23.076 8.20558 23.2985 8.53668 23.4403 8.89706C23.5822 9.25743 23.6404 9.6396 23.6116 10.0205C23.5827 10.4015 23.4673 10.7732 23.2724 11.1135C23.0775 11.4537 22.8071 11.7553 22.4775 12.0001C22.8071 12.2448 23.0775 12.5464 23.2724 12.8867C23.4673 13.2269 23.5827 13.5987 23.6116 13.9796C23.6404 14.3605 23.5822 14.7427 23.4403 15.1031C23.2985 15.4634 23.076 15.7945 22.7863 16.0764C22.4966 16.3582 22.1456 16.585 21.7546 16.743C21.3636 16.901 20.9407 16.987 20.5113 16.9958C20.0819 17.0045 19.6549 16.9359 19.2562 16.794C18.8575 16.652 18.4952 16.4398 18.1913 16.1701M4.5225 12.0001C4.19289 11.7553 3.92247 11.4537 3.72757 11.1135C3.53266 10.7732 3.4173 10.4015 3.38844 10.0205C3.35958 9.6396 3.41783 9.25743 3.55966 8.89706C3.7015 8.53668 3.92398 8.20558 4.2137 7.92372C4.50341 7.64187 4.85436 7.41509 5.24536 7.25708C5.63636 7.09907 6.05931 7.01309 6.48871 7.00434C6.91811 6.99559 7.34506 7.06424 7.7438 7.20615C8.14254 7.34806 8.5048 7.5603 8.80875 7.83006M8.80875 7.83006L18.1913 16.1701M18.1913 16.1701C18.4947 16.4402 18.7335 16.7622 18.8931 17.1167C19.0528 17.4711 19.13 17.8506 19.1202 18.2323C19.1103 18.614 19.0136 18.99 18.8358 19.3375C18.6581 19.6851 18.403 19.997 18.0859 20.2545C17.7688 20.5121 17.3963 20.7098 16.9909 20.8359C16.5855 20.962 16.1555 21.0138 15.727 20.9881C15.2984 20.9625 14.8802 20.8599 14.4974 20.6867C14.1147 20.5134 13.7754 20.273 13.5 19.9801C13.2246 20.273 12.8853 20.5134 12.5026 20.6867C12.1198 20.8599 11.7016 20.9625 11.273 20.9881C10.8445 21.0138 10.4145 20.962 10.0091 20.8359C9.6037 20.7098 9.23122 20.5121 8.91413 20.2545C8.59704 19.997 8.34192 19.6851 8.16415 19.3375C7.98639 18.99 7.88967 18.614 7.87982 18.2323C7.86997 17.8506 7.9472 17.4711 8.10686 17.1167C8.26651 16.7622 8.50527 16.4402 8.80875 16.1701C8.18665 16.6779 7.36305 16.9454 6.51914 16.9135C5.67523 16.8816 4.88013 16.553 4.30875 16.0001C3.73737 15.4471 3.43653 14.715 3.47239 13.9648C3.50826 13.2147 3.8779 12.5079 4.5 12.0001" stroke="#0DA484" stroke-width="2" stroke-linecap="round" stroke-linejoin="round"/>
</g>
</svg>
