<svg width="48" height="48" viewBox="0 0 36 36" fill="none" xmlns="http://www.w3.org/2000/svg">
<g id="Vector">
<path d="M1.97953 2.86792C2.13131 2.23165 2.6511 1.75032 3.29546 1.64937L9.5068 0.676253C15.2621 -0.225418 21.1221 -0.225417 26.8774 0.676254L32.9963 1.63488C33.6862 1.74296 34.2277 2.28523 34.3367 2.97708L35.3101 9.15633C36.2486 15.1145 36.2295 21.185 35.2533 27.1371L34.3314 32.7584C34.2242 33.4118 33.73 33.9331 33.085 34.0733L30.1091 34.72C22.2555 36.4267 14.1287 36.4267 6.27512 34.72L3.21867 34.0558C2.61457 33.9245 2.13892 33.4575 1.99507 32.8545L1.54552 30.9698C-0.515173 22.331 -0.515173 13.3263 1.54552 4.6874L1.97953 2.86792Z" fill="#0DA484"/>
<path d="M12.7315 6.109C13.0883 6.15719 13.4863 6.18128 13.9255 6.18128C14.5225 6.18128 15.0714 6.14342 15.5723 6.0677C15.6821 6.05393 15.761 6.04705 15.809 6.04705C16.0492 6.04705 16.2242 6.11933 16.334 6.26388C16.4438 6.40155 16.4987 6.6115 16.4987 6.89373C16.4987 7.20349 16.4575 7.42721 16.3751 7.56488C16.2928 7.69567 16.1281 7.77827 15.8811 7.81269C15.2841 7.89529 14.6871 7.93659 14.0902 7.93659C13.5824 7.93659 13.1021 7.90562 12.6492 7.84366C12.0659 7.76106 11.4484 7.71976 10.7965 7.71976C10.3505 7.71976 9.94564 7.74041 9.58196 7.78171C9.54765 7.78859 9.49619 7.79204 9.42757 7.79204C9.17368 7.79204 9.00214 7.71976 8.91293 7.5752C8.82373 7.43065 8.77913 7.22414 8.77913 6.95568C8.77913 6.65969 8.82373 6.43941 8.91293 6.29486C9.009 6.14342 9.15996 6.05737 9.36581 6.03672C9.83928 5.99542 10.3093 5.97477 10.7759 5.97477C11.4346 5.97477 12.0865 6.01951 12.7315 6.109ZM12.7315 9.84679C12.958 9.87432 13.1913 9.89497 13.4314 9.90874C13.4246 9.81237 13.4211 9.67125 13.4211 9.4854C13.4211 9.36149 13.4314 9.07238 13.452 8.61807C13.4657 8.42533 13.5378 8.2911 13.6682 8.21538C13.8054 8.13966 14.0147 8.1018 14.296 8.1018C14.5911 8.1018 14.8106 8.13966 14.9547 8.21538C15.0988 8.28421 15.164 8.41156 15.1503 8.59742C15.1297 9.05173 15.1194 9.33396 15.1194 9.4441C15.1194 9.62995 15.1229 9.76762 15.1297 9.85711L15.5723 9.80548C15.6821 9.79172 15.7576 9.78483 15.7987 9.78483C16.0664 9.78483 16.2482 9.86055 16.3443 10.012C16.4472 10.1565 16.4987 10.3631 16.4987 10.6315C16.4987 10.9413 16.4575 11.165 16.3751 11.3027C16.2928 11.4335 16.1281 11.5161 15.8811 11.5505C15.2841 11.6331 14.6871 11.6744 14.0902 11.6744C13.5824 11.6744 13.1021 11.6434 12.6492 11.5814C12.0659 11.4988 11.4484 11.4575 10.7965 11.4575C10.3505 11.4575 9.94564 11.4782 9.58196 11.5195C9.54765 11.5264 9.49619 11.5298 9.42757 11.5298C9.17368 11.5298 9.00214 11.4575 8.91293 11.313C8.82373 11.1684 8.77913 10.9619 8.77913 10.6935C8.77913 10.3975 8.82373 10.1772 8.91293 10.0326C9.009 9.8812 9.15996 9.79516 9.36581 9.77451L10.1584 9.72288C10.1515 9.62651 10.1481 9.4854 10.1481 9.29954C10.1481 9.16875 10.1584 8.88653 10.1789 8.45286C10.1927 8.26012 10.2647 8.12589 10.3951 8.05017C10.5323 7.97445 10.7416 7.93659 11.0229 7.93659C11.318 7.93659 11.5376 7.97445 11.6817 8.05017C11.8258 8.11901 11.891 8.24635 11.8772 8.43221C11.8566 8.86588 11.8464 9.15843 11.8464 9.30987C11.8464 9.50949 11.8498 9.65749 11.8566 9.75386C12.138 9.77451 12.4296 9.80548 12.7315 9.84679ZM11.7023 12.4281C11.7023 12.2079 11.7812 12.0564 11.939 11.9738C12.1037 11.8912 12.3438 11.8499 12.6595 11.8499C12.982 11.8499 13.2221 11.8912 13.38 11.9738C13.5378 12.0495 13.6167 12.201 13.6167 12.4281V13.3781H13.699L13.9975 13.3987C14.6151 13.4262 15.0268 13.44 15.2326 13.44C15.6512 13.44 16.0767 13.409 16.5089 13.3471C16.605 13.3333 16.6702 13.3264 16.7045 13.3264C16.9309 13.3264 17.0922 13.409 17.1883 13.5742C17.2843 13.7326 17.3324 13.9873 17.3324 14.3383C17.3324 14.5448 17.298 14.7066 17.2294 14.8236C17.1608 14.9406 17.0304 15.0198 16.8383 15.0611C16.358 15.1575 15.8399 15.2057 15.2841 15.2057C14.6185 15.2057 13.7299 15.1471 12.6183 15.0301C12.0351 14.9682 11.4792 14.9372 10.9509 14.9372C10.2647 14.9372 9.56137 14.9923 8.84089 15.1024L8.62474 15.1231C8.17186 15.1231 7.94542 14.8512 7.94542 14.3073C7.94542 14.0251 7.98316 13.8117 8.05864 13.6672C8.13412 13.5157 8.30567 13.4159 8.57328 13.3677C9.19084 13.2576 9.88045 13.2025 10.6421 13.2025C11.0401 13.2025 11.3523 13.2094 11.5787 13.2232L11.7023 13.2335V12.4281Z" fill="#A3F2D8"/>
<path d="M25.2056 8.85039C25.5281 8.82974 25.7443 8.87792 25.8541 8.99494C25.9707 9.10508 26.029 9.29782 26.029 9.57316C26.029 9.86227 25.9879 10.0653 25.9055 10.1824C25.8232 10.2994 25.6585 10.3682 25.4115 10.3889C24.492 10.4577 23.5416 10.4921 22.5604 10.4921C21.5654 10.4921 20.5705 10.4543 19.5755 10.3785C19.3491 10.3579 19.1775 10.3235 19.0609 10.2753C18.9511 10.2271 18.8756 10.1548 18.8344 10.0585C18.7933 9.9552 18.7727 9.81409 18.7727 9.63512C18.7727 9.05689 18.9854 8.78499 19.4108 8.81941C20.4195 8.89513 21.49 8.93299 22.6222 8.93299C23.6034 8.93299 24.4646 8.90546 25.2056 8.85039ZM20.8106 10.8948C20.8106 10.9981 20.8381 11.0772 20.893 11.1323C20.9479 11.1805 21.0611 11.2115 21.2326 11.2252C21.5071 11.2528 21.8571 11.2665 22.2825 11.2665C22.7766 11.2665 23.2843 11.2459 23.8058 11.2046C24.3273 11.1633 24.7939 11.1048 25.2056 11.029C25.384 11.0015 25.5007 10.9877 25.5556 10.9877C25.7271 10.9877 25.8472 11.0325 25.9158 11.122C25.9844 11.2115 26.0325 11.3629 26.0599 11.5763C26.0805 11.7071 26.0908 11.8275 26.0908 11.9377C26.0908 12.1098 26.0496 12.244 25.9673 12.3404C25.8849 12.4367 25.7408 12.5056 25.535 12.5469C24.9998 12.6501 24.3342 12.7258 23.5382 12.774V13.4039L24.4543 13.4245C25.1885 13.4245 25.8472 13.3798 26.4305 13.2903C26.5265 13.2765 26.5917 13.2696 26.626 13.2696C26.8181 13.2696 26.9622 13.335 27.0583 13.4658C27.1544 13.5897 27.2093 13.7894 27.223 14.0647C27.2299 14.2987 27.1818 14.4777 27.0789 14.6016C26.9828 14.7255 26.8319 14.8047 26.626 14.8391C26.1388 14.9148 25.5624 14.9527 24.8968 14.9527C24.492 14.9527 23.696 14.9286 22.5089 14.8804C21.4248 14.8322 20.5671 14.8081 19.9358 14.8081C19.38 14.8081 18.9168 14.8253 18.5463 14.8598C18.2992 14.8804 18.1174 14.8288 18.0007 14.7049C17.891 14.581 17.8361 14.3607 17.8361 14.0441C17.8361 13.5897 18.0316 13.3488 18.4227 13.3213C18.958 13.2869 19.4657 13.2696 19.9461 13.2696C20.4607 13.2696 21.0199 13.2834 21.6238 13.3109V12.7947C21.2121 12.7878 20.7798 12.7534 20.3269 12.6914C19.8534 12.6226 19.5035 12.4539 19.277 12.1855C19.0506 11.9101 18.9374 11.5728 18.9374 11.1736C18.9374 10.9809 18.9683 10.8397 19.03 10.7503C19.0918 10.6608 19.1844 10.6057 19.3079 10.585C19.4314 10.5644 19.6201 10.5541 19.874 10.5541C20.1348 10.5541 20.3303 10.5644 20.4607 10.585C20.5911 10.5988 20.6803 10.6298 20.7283 10.678C20.7832 10.7262 20.8106 10.7984 20.8106 10.8948ZM23.2191 15.9233C23.2191 16.2468 23.1642 16.4671 23.0545 16.5841C22.9447 16.7011 22.7457 16.7631 22.4575 16.77C21.9497 16.7768 21.5723 16.7906 21.3253 16.8113C21.0851 16.8319 20.9136 16.8663 20.8106 16.9145C20.7077 16.9627 20.6563 17.035 20.6563 17.1313C20.6563 17.2346 20.6974 17.3138 20.7798 17.3688C20.8621 17.4239 21.0131 17.4652 21.2326 17.4927C21.4522 17.5134 21.7747 17.5237 22.2002 17.5237H22.5604C23.1299 17.5168 23.5485 17.5031 23.8161 17.4824C24.0837 17.4549 24.2621 17.417 24.3513 17.3688C24.4405 17.3206 24.4851 17.2484 24.4851 17.152C24.4851 17.0487 24.4371 16.973 24.341 16.9248C24.2518 16.8766 24.0769 16.8388 23.8161 16.8113C23.6446 16.7975 23.5211 16.7459 23.4456 16.6564C23.377 16.56 23.3426 16.4086 23.3426 16.2021C23.3426 16.1057 23.3461 16.03 23.3529 15.9749C23.3804 15.7064 23.4456 15.5309 23.5485 15.4483C23.6583 15.3657 23.8539 15.3313 24.1352 15.345C24.842 15.3932 25.4012 15.5584 25.8129 15.8407C26.2315 16.116 26.4408 16.5359 26.4408 17.1004C26.4408 17.5891 26.3035 17.9746 26.029 18.2568C25.7546 18.5459 25.3223 18.7559 24.7322 18.8867C24.142 19.0174 23.3564 19.0828 22.3751 19.0828C19.9118 19.0828 18.6801 18.422 18.6801 17.1004C18.6801 16.6598 18.8001 16.2984 19.0403 16.0162C19.2805 15.734 19.675 15.5275 20.224 15.3967C20.7729 15.2659 21.5037 15.2074 22.4163 15.2211C22.7045 15.228 22.9104 15.2831 23.0339 15.3863C23.1574 15.4896 23.2191 15.6686 23.2191 15.9233Z" fill="#A3F2D8"/>
<path d="M12.7315 16.999C13.0883 17.0472 13.4863 17.0713 13.9255 17.0713C14.5225 17.0713 15.0714 17.0335 15.5723 16.9577C15.6821 16.944 15.761 16.9371 15.809 16.9371C16.0492 16.9371 16.2242 17.0094 16.334 17.1539C16.4438 17.2916 16.4987 17.5015 16.4987 17.7838C16.4987 18.0935 16.4575 18.3172 16.3751 18.4549C16.2928 18.5857 16.1281 18.6683 15.8811 18.7027C15.2841 18.7853 14.6871 18.8266 14.0902 18.8266C13.5824 18.8266 13.1021 18.7957 12.6492 18.7337C12.0659 18.6511 11.4484 18.6098 10.7965 18.6098C10.3505 18.6098 9.94564 18.6305 9.58196 18.6718C9.54765 18.6786 9.49619 18.6821 9.42757 18.6821C9.17368 18.6821 9.00214 18.6098 8.91293 18.4652C8.82373 18.3207 8.77913 18.1142 8.77913 17.8457C8.77913 17.5497 8.82373 17.3295 8.91293 17.1849C9.009 17.0335 9.15996 16.9474 9.36581 16.9268C9.83928 16.8855 10.3093 16.8648 10.7759 16.8648C11.4346 16.8648 12.0865 16.9096 12.7315 16.999ZM12.7315 20.7368C12.958 20.7644 13.1913 20.785 13.4314 20.7988C13.4246 20.7024 13.4211 20.5613 13.4211 20.3754C13.4211 20.2515 13.4314 19.9624 13.452 19.5081C13.4657 19.3154 13.5378 19.1811 13.6682 19.1054C13.8054 19.0297 14.0147 18.9918 14.296 18.9918C14.5911 18.9918 14.8106 19.0297 14.9547 19.1054C15.0988 19.1743 15.164 19.3016 15.1503 19.4875C15.1297 19.9418 15.1194 20.224 15.1194 20.3341C15.1194 20.52 15.1229 20.6577 15.1297 20.7472L15.5723 20.6955C15.6821 20.6818 15.7576 20.6749 15.7987 20.6749C16.0664 20.6749 16.2482 20.7506 16.3443 20.902C16.4472 21.0466 16.4987 21.2531 16.4987 21.5216C16.4987 21.8313 16.4575 22.055 16.3751 22.1927C16.2928 22.3235 16.1281 22.4061 15.8811 22.4405C15.2841 22.5231 14.6871 22.5644 14.0902 22.5644C13.5824 22.5644 13.1021 22.5334 12.6492 22.4715C12.0659 22.3889 11.4484 22.3476 10.7965 22.3476C10.3505 22.3476 9.94564 22.3682 9.58196 22.4095C9.54765 22.4164 9.49619 22.4199 9.42757 22.4199C9.17368 22.4199 9.00214 22.3476 8.91293 22.203C8.82373 22.0585 8.77913 21.852 8.77913 21.5835C8.77913 21.2875 8.82373 21.0672 8.91293 20.9227C9.009 20.7712 9.15996 20.6852 9.36581 20.6646L10.1584 20.6129C10.1515 20.5166 10.1481 20.3754 10.1481 20.1896C10.1481 20.0588 10.1584 19.7766 10.1789 19.3429C10.1927 19.1502 10.2647 19.0159 10.3951 18.9402C10.5323 18.8645 10.7416 18.8266 11.0229 18.8266C11.318 18.8266 11.5376 18.8645 11.6817 18.9402C11.8258 19.009 11.891 19.1364 11.8772 19.3223C11.8566 19.7559 11.8464 20.0485 11.8464 20.1999C11.8464 20.3995 11.8498 20.5475 11.8566 20.6439C12.138 20.6646 12.4296 20.6955 12.7315 20.7368ZM11.7023 23.3182C11.7023 23.0979 11.7812 22.9465 11.939 22.8639C12.1037 22.7813 12.3438 22.74 12.6595 22.74C12.982 22.74 13.2221 22.7813 13.38 22.8639C13.5378 22.9396 13.6167 23.091 13.6167 23.3182V24.2681H13.699L13.9975 24.2888C14.6151 24.3163 15.0268 24.3301 15.2326 24.3301C15.6512 24.3301 16.0767 24.2991 16.5089 24.2371C16.605 24.2234 16.6702 24.2165 16.7045 24.2165C16.9309 24.2165 17.0922 24.2991 17.1883 24.4643C17.2843 24.6226 17.3324 24.8773 17.3324 25.2284C17.3324 25.4349 17.298 25.5966 17.2294 25.7137C17.1608 25.8307 17.0304 25.9098 16.8383 25.9511C16.358 26.0475 15.8399 26.0957 15.2841 26.0957C14.6185 26.0957 13.7299 26.0372 12.6183 25.9202C12.0351 25.8582 11.4792 25.8272 10.9509 25.8272C10.2647 25.8272 9.56137 25.8823 8.84089 25.9924L8.62474 26.0131C8.17186 26.0131 7.94542 25.7412 7.94542 25.1974C7.94542 24.9152 7.98316 24.7018 8.05864 24.5572C8.13412 24.4058 8.30567 24.306 8.57328 24.2578C9.19084 24.1476 9.88045 24.0926 10.6421 24.0926C11.0401 24.0926 11.3523 24.0995 11.5787 24.1132L11.7023 24.1236V23.3182Z" fill="white"/>
<path d="M25.1027 20.1251C25.1507 20.1182 25.2159 20.1147 25.2983 20.1147C25.5384 20.1147 25.7031 20.1664 25.7923 20.2696C25.8815 20.366 25.9261 20.5243 25.9261 20.7446C25.9261 20.9304 25.909 21.0681 25.8747 21.1576C25.8472 21.2471 25.7889 21.309 25.6997 21.3434C25.6173 21.3779 25.487 21.402 25.3086 21.4157C24.4165 21.4777 23.5588 21.5087 22.7354 21.5087C22.0629 21.5087 21.4557 21.4949 20.9136 21.4673L20.9033 21.7771C21.3218 21.8046 21.8125 21.8184 22.3751 21.8184C23.2054 21.8184 24.046 21.7806 24.8968 21.7048L25.2468 21.6842C25.4115 21.6842 25.5281 21.7117 25.5967 21.7668C25.6722 21.8219 25.7237 21.9251 25.7511 22.0765C25.758 22.1454 25.7649 22.2142 25.7717 22.2831C25.7717 22.4138 25.7306 22.5171 25.6482 22.5928C25.5659 22.6685 25.4252 22.7167 25.2262 22.7374C24.2244 22.8269 23.274 22.8716 22.3751 22.8716C21.8742 22.8716 21.3665 22.8544 20.8518 22.82V22.851C20.8381 22.9473 20.8484 23.0196 20.8827 23.0678C20.9239 23.1091 21.0062 23.1332 21.1297 23.1401C21.5003 23.1607 21.9291 23.171 22.4163 23.171C23.5691 23.171 24.516 23.1194 25.2571 23.0162L25.5453 22.9955C25.7306 22.9955 25.8644 23.0402 25.9467 23.1297C26.029 23.2123 26.0839 23.3603 26.1114 23.5737L26.132 23.7906C26.132 23.942 26.0908 24.059 26.0085 24.1416C25.933 24.2173 25.7923 24.269 25.5865 24.2965C24.9963 24.3722 24.2999 24.4204 23.497 24.4411V24.916C23.7235 24.9229 24.0288 24.9264 24.4131 24.9264C25.2296 24.9264 25.9021 24.8919 26.4305 24.8231C26.4716 24.8162 26.53 24.8128 26.6054 24.8128C26.8113 24.8128 26.9657 24.8782 27.0686 25.009C27.1715 25.1397 27.223 25.3531 27.223 25.6491C27.223 25.8625 27.1715 26.0208 27.0686 26.1241C26.9725 26.2205 26.825 26.2824 26.626 26.31C26.1869 26.3719 25.6482 26.4029 25.0101 26.4029C24.6052 26.4029 23.7715 26.3788 22.5089 26.3306C21.4385 26.2893 20.6322 26.2686 20.0902 26.2686C19.5549 26.2686 19.0403 26.2893 18.5463 26.3306L18.4124 26.3409C18.2135 26.3409 18.0659 26.2824 17.9699 26.1654C17.8807 26.0484 17.8361 25.8488 17.8361 25.5665C17.8361 25.3394 17.8841 25.1673 17.9802 25.0503C18.0762 24.9332 18.2237 24.8678 18.4227 24.8541C18.8276 24.8334 19.2462 24.8231 19.6784 24.8231C20.1588 24.8231 20.7935 24.8334 21.5826 24.8541V24.4514C20.9376 24.4238 20.4676 24.3963 20.1725 24.3688C19.7539 24.3344 19.4417 24.2139 19.2359 24.0074C19.0369 23.8009 18.9511 23.4877 18.9785 23.0678C19.0197 22.4138 19.0369 21.8184 19.03 21.2815C18.9339 21.2333 18.8653 21.1714 18.8242 21.0956C18.7898 21.013 18.7727 20.9063 18.7727 20.7756C18.7727 20.4864 18.8207 20.2971 18.9168 20.2077C19.0129 20.1182 19.1775 20.0803 19.4108 20.0941C20.6048 20.1767 21.6924 20.218 22.6736 20.218C23.4833 20.218 24.293 20.187 25.1027 20.1251ZM23.2191 27.2909C23.2191 27.6006 23.1608 27.8209 23.0442 27.9517C22.9344 28.0756 22.7388 28.141 22.4575 28.1479C21.9566 28.1548 21.586 28.1651 21.3459 28.1788C21.1126 28.1926 20.9445 28.2167 20.8415 28.2511C20.7455 28.2855 20.6974 28.3406 20.6974 28.4163C20.6974 28.5265 20.8072 28.6091 21.0268 28.6641C21.2464 28.7123 21.6581 28.7364 22.2619 28.7364C22.8863 28.7364 23.3529 28.7261 23.6617 28.7054C23.9774 28.6848 24.1866 28.6573 24.2896 28.6228C24.3994 28.5815 24.4543 28.5265 24.4543 28.4576C24.4543 28.3819 24.4062 28.3268 24.3102 28.2924C24.221 28.2511 24.0563 28.2236 23.8161 28.2098C23.6446 28.1961 23.5211 28.1444 23.4456 28.0549C23.377 27.9586 23.3426 27.8106 23.3426 27.6109C23.3426 27.2668 23.401 27.0362 23.5176 26.9191C23.6343 26.7952 23.8504 26.7402 24.1661 26.7539C25.6825 26.8365 26.4408 27.401 26.4408 28.4473C26.4408 28.9154 26.3035 29.2837 26.029 29.5521C25.7546 29.8206 25.3223 30.0099 24.7322 30.12C24.1489 30.237 23.3598 30.2955 22.3648 30.2955C19.9083 30.2955 18.6801 29.6657 18.6801 28.406C18.6801 27.9861 18.8001 27.6454 19.0403 27.3838C19.2805 27.1153 19.675 26.9191 20.224 26.7952C20.7729 26.6645 21.5037 26.6059 22.4163 26.6197C22.7045 26.6266 22.9104 26.6817 23.0339 26.7849C23.1574 26.8813 23.2191 27.0499 23.2191 27.2909Z" fill="white"/>
</g>
</svg>
